<svg width="55" height="55" viewBox="0 0 55 55" fill="none" xmlns="http://www.w3.org/2000/svg">
<g id="Call">
<path id="Vector" d="M55 27.5C55 42.688 42.688 55 27.5 55C22.8955 55 18.5563 53.8687 14.7445 51.8697C13.447 51.1882 12.21 50.4069 11.0439 49.5349C10.4354 49.08 9.84715 48.6008 9.28024 48.0981C3.58856 43.0606 0 35.6993 0 27.5C0 12.312 12.312 0 27.5 0C42.688 0 55 12.312 55 27.5Z" fill="#FFE152"/>
<path id="Vector_2" d="M41.0482 48.2941V51.4362C38.3035 52.9938 35.2642 54.0915 32.0349 54.6269C31.3421 54.7415 30.6417 54.8313 29.9334 54.893C29.4924 54.9324 29.048 54.9605 28.5999 54.9773C28.2352 54.9928 27.8681 54.9995 27.5001 54.9995C26.6785 54.9995 25.8669 54.9639 25.0642 54.893C23.0282 54.7146 21.056 54.3139 19.1715 53.7155C17.342 53.1352 15.5943 52.3677 13.9519 51.4362V48.2941C13.9519 43.5667 17.1624 39.5887 21.523 38.4222C21.6825 38.3798 21.8428 38.3403 22.0056 38.3055C22.4391 38.2111 22.8834 38.1461 23.3358 38.1091C23.6119 38.0865 23.8901 38.0756 24.1721 38.0756H30.8272C31.5712 38.0756 32.2963 38.154 32.9945 38.3055C33.0348 38.3135 33.0751 38.3223 33.1145 38.3315C33.2325 38.3584 33.3504 38.3873 33.4658 38.4188C33.4691 38.4201 33.4716 38.4201 33.475 38.4213C34.6256 38.7289 35.696 39.2329 36.6481 39.8938C39.3072 41.7392 41.0482 44.8133 41.0482 48.2941Z" fill="#3D4159"/>
<path id="Vector_3" d="M33.4997 38.3055L33.475 38.4214L29.9334 54.893C29.132 54.9639 28.3196 54.9996 27.5001 54.9996C26.6785 54.9996 25.8669 54.9639 25.0642 54.893L21.523 38.4222L21.4983 38.3055H33.4997Z" fill="#F2F0EC"/>
<path id="Vector_4" d="M30.243 41.7628L27.4996 46.1629L24.7561 41.7628" fill="#F74F4F"/>
<path id="Vector_5" d="M30.0324 54.8834C29.1982 54.9606 28.3531 55 27.5 55C26.6457 55 25.8006 54.9606 24.9668 54.8842L27.5 45.0182L30.0324 54.8834Z" fill="#F74F4F"/>
<path id="Vector_6" d="M27.4988 42.2592L22.8981 44.8159L21.4983 38.306L24.3571 36.6221" fill="#D8D5D0"/>
<path id="Vector_7" d="M27.4988 42.2592L32.0999 44.8159L33.4993 38.306L30.6404 36.6221" fill="#D8D5D0"/>
<path id="Vector_8" d="M36.6481 39.3328L33.6734 47.091H35.1329L32.0348 54.6269C31.342 54.7415 30.6417 54.8313 29.9334 54.893C29.4924 54.9324 29.048 54.9605 28.5999 54.9773L33.4997 37.7445L36.6481 39.3328Z" fill="#2A2F4F"/>
<path id="Vector_9" d="M18.3162 39.3327L21.2904 47.091H19.8314L22.9294 54.6269C23.6218 54.7415 24.3221 54.8313 25.0304 54.893C25.4715 54.9324 25.9163 54.9605 26.364 54.9773L21.4981 37.8578L18.3162 39.3327Z" fill="#2A2F4F"/>
<path id="Vector_10" d="M31.1455 34.1388V38.6136C31.1455 40.2518 30.0655 41.6365 28.5775 42.0964C28.2372 42.2021 27.8742 42.2592 27.4987 42.2592C25.4849 42.2592 23.853 40.6273 23.853 38.6136V34.1388H31.1455Z" fill="#EAB599"/>
<path id="Vector_11" d="M31.1457 38.3303V38.6136C31.1457 40.2517 30.0656 41.6365 28.5776 42.0964C27.2353 41.6839 26.2261 40.5165 26.0398 39.0886C26.2832 39.1033 26.5282 39.1108 26.7741 39.1108C27.464 39.1108 28.1404 39.0563 28.7988 38.948C29.6107 38.8175 30.395 38.6085 31.1457 38.3303Z" fill="#F6CAAE"/>
<path id="Vector_12" d="M17.4977 26.8055C17.4977 28.4932 16.2644 29.893 14.6497 30.1528C14.4735 30.1813 14.2918 30.196 14.1067 30.196C12.2336 30.196 10.7158 28.6786 10.7158 26.8055C10.7158 24.9323 12.2336 23.4146 14.1067 23.4146C14.2918 23.4146 14.4735 23.4297 14.6497 23.4582C16.2644 23.7179 17.4977 25.1174 17.4977 26.8055Z" fill="#F6CAAE"/>
<path id="Vector_13" d="M17.4975 26.8055C17.4975 28.4932 16.2642 29.8931 14.6495 30.1528C14.3562 29.0862 14.1997 27.9637 14.1997 26.8055C14.1997 25.647 14.3562 24.5245 14.6495 23.4583C16.2642 23.718 17.4975 25.1174 17.4975 26.8055Z" fill="#EAB599"/>
<path id="Vector_14" d="M15.3185 26.8055C15.3185 27.4748 14.7759 28.0173 14.1066 28.0173C13.4373 28.0173 12.8948 27.4748 12.8948 26.8055C12.8948 26.1362 13.4373 25.5936 14.1066 25.5936C14.7759 25.5936 15.3185 26.1362 15.3185 26.8055Z" fill="#EAB599"/>
<path id="Vector_15" d="M37.5012 26.8055C37.5012 28.4932 38.7341 29.893 40.3487 30.1528C40.5254 30.1813 40.7067 30.196 40.8921 30.196C42.7653 30.196 44.2826 28.6786 44.2826 26.8055C44.2826 24.9323 42.7653 23.4146 40.8921 23.4146C40.7067 23.4146 40.5254 23.4297 40.3487 23.4582C38.7341 23.7179 37.5012 25.1174 37.5012 26.8055Z" fill="#F6CAAE"/>
<path id="Vector_16" d="M37.5012 26.8055C37.5012 28.4932 38.7341 29.8931 40.3487 30.1528C40.6421 29.0862 40.799 27.9637 40.799 26.8055C40.799 25.647 40.6425 24.5245 40.3487 23.4583C38.7341 23.718 37.5012 25.1174 37.5012 26.8055Z" fill="#EAB599"/>
<path id="Vector_17" d="M40.1153 20.1994V25.0036C40.1153 31.2815 35.5289 36.4898 29.5238 37.4562C29.5037 37.4595 29.4823 37.4629 29.4621 37.4663C28.8235 37.5682 28.168 37.619 27.4987 37.619C20.5318 37.619 14.8838 31.9705 14.8838 25.0036V20.1994C14.8838 18.7325 15.1339 17.3226 15.5963 16.0129C17.3218 11.103 22.0001 7.58325 27.4987 7.58325H27.5C28.168 7.58325 28.8243 7.63486 29.4642 7.73599C35.4987 8.67887 40.1153 13.9002 40.1153 20.1994Z" fill="#EAB599"/>
<path id="Vector_18" d="M42.1039 26.8055C42.1039 27.4748 41.5613 28.0173 40.892 28.0173C40.2227 28.0173 39.6802 27.4748 39.6802 26.8055C39.6802 26.1362 40.2227 25.5936 40.892 25.5936C41.5613 25.5936 42.1039 26.1362 42.1039 26.8055Z" fill="#EAB599"/>
<path id="Vector_19" d="M40.1154 20.1995V25.0037C40.1154 31.2816 35.5289 36.4899 29.5238 37.4563C29.5037 37.4596 29.4823 37.463 29.4621 37.4663C23.4276 36.5235 18.8123 31.3018 18.8123 25.0037V20.1995C18.8123 13.9003 23.4289 8.67896 29.4642 7.73608C35.4987 8.67896 40.1154 13.9003 40.1154 20.1995Z" fill="#F6CAAE"/>
<path id="Vector_20" d="M24.8129 24.269C24.8129 25.0595 24.1721 25.6999 23.3816 25.6999C22.5914 25.6999 21.9507 25.0595 21.9507 24.269C21.9507 23.4784 22.5914 22.8376 23.3816 22.8376C24.1721 22.8376 24.8129 23.4784 24.8129 24.269Z" fill="#3D4159"/>
<path id="Vector_21" d="M33.0485 24.269C33.0485 25.0595 32.4077 25.6999 31.6172 25.6999C30.827 25.6999 30.1863 25.0595 30.1863 24.269C30.1863 23.4784 30.827 22.8376 31.6172 22.8376C32.4077 22.8376 33.0485 23.4784 33.0485 24.269Z" fill="#3D4159"/>
<path id="Vector_22" d="M24.5208 24.0164C24.5208 24.355 24.2464 24.6294 23.9077 24.6294C23.5691 24.6294 23.2947 24.355 23.2947 24.0164C23.2947 23.6777 23.5691 23.4033 23.9077 23.4033C24.2464 23.4033 24.5208 23.6777 24.5208 24.0164Z" fill="white"/>
<path id="Vector_23" d="M32.8271 24.0164C32.8271 24.355 32.5523 24.6294 32.2136 24.6294C31.875 24.6294 31.6006 24.355 31.6006 24.0164C31.6006 23.6777 31.875 23.4033 32.2136 23.4033C32.5523 23.4033 32.8271 23.6777 32.8271 24.0164Z" fill="white"/>
<path id="Vector_24" d="M28.9304 27.3112H26.0682C25.727 27.3112 25.4509 27.0347 25.4509 26.6936C25.4509 26.3528 25.727 26.0763 26.0682 26.0763H28.9304C29.2715 26.0763 29.5476 26.3528 29.5476 26.6936C29.5476 27.0347 29.2715 27.3112 28.9304 27.3112Z" fill="#EAB599"/>
<path id="Vector_25" d="M27.4995 31.217C26.4429 31.217 25.3867 30.9522 24.4237 30.4231C24.1518 30.2737 24.0528 29.9325 24.2022 29.6606C24.3515 29.3891 24.6927 29.2901 24.9642 29.4391C26.5516 30.3119 28.447 30.3119 30.0344 29.4391C30.3059 29.2901 30.647 29.3891 30.7964 29.6606C30.9458 29.9325 30.8468 30.2737 30.5749 30.4231C29.6123 30.9522 28.5557 31.217 27.4995 31.217Z" fill="#EAB599"/>
<path id="Vector_26" d="M40.1153 15.8397V20.761H37.7672V16.9072L20.818 13.7576L17.232 13.0908V20.761H14.8838V15.8397C14.8838 10.2299 19.4308 5.6825 25.0398 5.6825H29.9594C30.0928 5.6825 30.2262 5.68501 30.3601 5.69173C35.7824 5.90028 40.1153 10.3633 40.1153 15.8397Z" fill="#2A2F4F"/>
<path id="Vector_27" d="M40.1154 15.8397V20.7609H37.7673V16.9072L20.8181 13.7575C21.7522 9.27224 25.6437 5.87334 30.3602 5.69165C35.7825 5.9002 40.1154 10.3632 40.1154 15.8397Z" fill="#3D4159"/>
<path id="Vector_28" d="M24.5534 41.2118L23.4242 42.68L20.3409 43.5029L18.5202 43.9876L17.0994 42.6779C17.0599 42.6406 17.0196 42.6049 16.9814 42.5667C12.9766 38.8288 11.0842 35.8902 9.33981 30.6966C9.32176 30.6463 9.30498 30.5947 9.28819 30.543L8.68311 28.7076L9.87985 27.2507L11.9045 24.7846L13.7063 24.3638L13.9858 25.0742L14.7726 27.0758L15.9118 29.974L14.4289 31.3277L13.4277 32.2412C13.8868 33.7128 16.1183 37.1789 17.2676 38.2069L18.5135 37.674L20.3589 36.8814L22.5263 39.1208L24.0226 40.665L24.0239 40.6642L24.5534 41.2118Z" fill="#66BAED"/>
<path id="Vector_29" d="M20.3593 36.8818L18.5134 37.6741L23.4246 42.6797L24.5534 41.2123L20.3593 36.8818Z" fill="#F2F0EC"/>
<path id="Vector_30" d="M15.9124 29.974L14.4274 31.3265L11.9038 24.7834L13.7069 24.3638L15.9124 29.974Z" fill="#F2F0EC"/>
<path id="Vector_31" d="M20.3409 43.5029L18.5202 43.9876L17.0994 42.6779C17.0599 42.6406 17.0196 42.6049 16.9814 42.5667C12.9766 38.8288 11.0842 35.8902 9.33981 30.6966C9.32176 30.6463 9.30498 30.5947 9.28819 30.543L8.68311 28.7076L9.87985 27.2507C9.87985 27.2507 10.2613 37.1936 20.3401 43.5016C20.3401 43.5016 20.3409 43.5016 20.3409 43.5029Z" fill="#2BA1CF"/>
<path id="Vector_32" d="M16.9517 36.9669L15.2452 38.6731C14.7903 39.128 14.1944 39.3558 13.5986 39.355C13.2197 39.3558 12.8403 39.2639 12.4975 39.0797C12.3015 38.974 12.1173 38.8393 11.9516 38.6735C11.0419 37.7638 11.0419 36.2893 11.9516 35.3795L13.6577 33.6729C14.5675 32.7636 16.042 32.7636 16.9517 33.6729C17.1175 33.8391 17.2526 34.0229 17.3579 34.2193C17.8321 35.1009 17.6953 36.223 16.9517 36.9669Z" fill="#EAB599"/>
<path id="Vector_33" d="M16.9517 36.967L15.2451 38.6732C14.7903 39.128 14.1944 39.3559 13.5986 39.3551C13.2197 39.3559 12.8403 39.264 12.4975 39.0798C12.0238 38.1982 12.1601 37.0757 12.9037 36.3321L14.6103 34.6256C15.3538 33.882 16.4763 33.7452 17.3579 34.2194C17.8321 35.101 17.6953 36.223 16.9517 36.967Z" fill="#F6CAAE"/>
<path id="Vector_34" d="M14.7445 51.8696C13.447 51.1881 12.21 50.4068 11.0439 49.5349C10.4354 49.08 9.84711 48.6008 9.28021 48.0981C9.1816 44.6623 9.7506 41.2118 10.9855 37.9434C11.4782 38.1297 11.9721 38.316 12.4647 38.5023C13.5288 38.9039 14.593 39.3071 15.658 39.7087C14.1834 43.6115 13.8792 47.8341 14.7445 51.8696Z" fill="#2A2F4F"/>
<path id="Vector_35" d="M14.7445 51.8696C13.4471 51.1882 12.2101 50.4068 11.0439 49.5349C10.7364 45.823 11.2101 42.0628 12.4648 38.5023C13.5289 38.9039 14.5931 39.3071 15.658 39.7087C14.1835 43.6116 13.8793 47.8342 14.7445 51.8696Z" fill="#3D4159"/>
<path id="Vector_36" d="M31.6689 1.82617H52.137V17.2118H31.6689V1.82617Z" fill="#F2F0EC"/>
<path id="Vector_37" d="M42.0671 16.25L39.8691 21.47L49.4851 15.9756L42.0671 16.25Z" fill="#F2F0EC"/>
<g id="Group">
<path id="Vector_38" d="M39.5174 9.519C39.5174 10.3154 38.8716 10.9612 38.0752 10.9612C37.2784 10.9612 36.6326 10.3154 36.6326 9.519C36.6326 8.72257 37.2784 8.07678 38.0752 8.07678C38.8716 8.07678 39.5174 8.72257 39.5174 9.519Z" fill="#3D4159"/>
<path id="Vector_39" d="M43.3451 9.519C43.3451 10.3154 42.6993 10.9612 41.9029 10.9612C41.1065 10.9612 40.4607 10.3154 40.4607 9.519C40.4607 8.72257 41.1065 8.07678 41.9029 8.07678C42.6993 8.07678 43.3451 8.72257 43.3451 9.519Z" fill="#3D4159"/>
<path id="Vector_40" d="M47.1734 9.519C47.1734 10.3154 46.5276 10.9612 45.7308 10.9612C44.9344 10.9612 44.2886 10.3154 44.2886 9.519C44.2886 8.72257 44.9344 8.07678 45.7308 8.07678C46.5276 8.07678 47.1734 8.72257 47.1734 9.519Z" fill="#3D4159"/>
</g>
</g>
</svg>
