<svg width="49" height="55" viewBox="0 0 49 55" fill="none" xmlns="http://www.w3.org/2000/svg">
<g id="Chat">
<g id="Group">
<g id="Group_2">
<path id="Vector" d="M20.7162 35.3689C16.2494 30.9021 9.02229 30.8782 4.52582 35.297C0.0122796 39.7326 -0.0499175 47.061 4.39112 51.5692C8.3161 55.5535 14.4171 56.0674 18.9036 53.1109L21.5609 53.6927C22.2886 53.852 22.9365 53.2041 22.7772 52.4764L22.1954 49.8191C25.1362 45.3564 24.6433 39.2959 20.7162 35.3689Z" fill="#64B9FC"/>
<path id="Vector_2" d="M24.0449 44.448C24.3125 41.1977 23.2033 37.8555 20.716 35.3692C16.2492 30.9024 9.02238 30.8779 4.52592 35.2967C3.79352 36.0158 3.1796 36.8105 2.68213 37.6582C5.0684 41.5174 8.93816 44.361 13.4962 45.394C13.7096 45.4424 13.8968 45.5699 14.0148 45.7541L16.4494 49.5532C16.6898 49.9278 17.1135 50.0787 17.5013 50.0057C17.9257 49.9259 18.3419 50.176 18.457 50.5923L19.0011 52.5593C19.0451 52.7584 19.0277 52.9515 18.9654 53.1241L21.5609 53.693C22.2881 53.8523 22.9367 53.2037 22.7774 52.4764L22.1952 49.8196C23.2736 48.1828 23.8875 46.3312 24.0423 44.4488C24.043 44.4487 24.0439 44.4483 24.0449 44.448Z" fill="#31A7FB"/>
</g>
<g id="Group_3">
<path id="Vector_3" d="M48.1376 38.931C50.3942 32.9323 47.3124 26.2337 41.2598 24.0585C35.4049 21.9543 28.8767 24.9439 26.6425 30.7505C24.634 35.9702 26.6849 41.7392 31.2297 44.6049L31.7969 47.2654C31.9522 47.9939 32.8099 48.3165 33.4068 47.871L35.5869 46.244C40.8658 47.08 46.1821 44.1289 48.1376 38.931Z" fill="#FEE265"/>
<path id="Vector_4" d="M46.7937 28.29C46.7944 28.2888 46.795 28.2876 46.7957 28.2863C45.481 26.4048 43.5914 24.8961 41.2594 24.0585C35.4054 21.9543 28.8773 24.9441 26.6423 30.7501C25.1489 34.6317 25.8996 38.8156 28.251 41.885C30.1816 40.2885 31.7566 38.2793 32.8435 35.9922C37.1882 36.3659 41.5157 34.723 44.5164 31.5205C45.0543 30.9464 46.016 31.2487 46.1168 32.0289C46.3497 33.8324 46.1572 35.7172 45.4719 37.5377C43.5168 42.7359 38.2001 45.6869 32.9213 44.8513L31.5076 45.9065L31.7967 47.2651C31.9519 47.9943 32.81 48.3162 33.4075 47.8708L35.5873 46.2436C40.8662 47.0802 46.1819 44.1292 48.1379 38.9309C49.5252 35.2428 48.8918 31.2928 46.7937 28.29Z" fill="#FDD330"/>
<g id="Group_4">
<path id="Vector_5" d="M38.2803 27.5782L39.9333 30.54C40.0794 30.8019 40.3332 30.9862 40.6274 31.0443L43.9552 31.7012C44.7397 31.856 45.05 32.8114 44.5064 33.3979L42.2003 35.8852C41.9964 36.1051 41.8995 36.4035 41.9352 36.7012L42.3388 40.069C42.4339 40.8629 41.6212 41.4533 40.8956 41.1175L37.8173 39.6929C37.5452 39.567 37.2314 39.567 36.9593 39.6929L33.881 41.1175C33.1554 41.4533 32.3426 40.8629 32.4378 40.069L32.8414 36.7012C32.8771 36.4034 32.7802 36.1051 32.5763 35.8852L30.2701 33.3979C29.7265 32.8114 30.0369 31.8561 30.8214 31.7012L34.1491 31.0443C34.4434 30.9862 34.6971 30.8019 34.8433 30.54L36.4963 27.5782C36.886 26.88 37.8907 26.88 38.2803 27.5782Z" fill="#FC9744"/>
<path id="Vector_6" d="M44.2431 31.8042C41.2563 34.8195 37.0571 36.3548 32.8436 35.9922C32.816 36.0504 32.7884 36.1075 32.7598 36.1648C32.7158 36.0637 32.6535 35.9686 32.5759 35.885L30.2705 33.3977C29.727 32.8114 30.0365 31.8563 30.821 31.7011L34.149 31.0443C34.4432 30.9861 34.6975 30.8022 34.8436 30.5407L36.4962 27.5784C36.8864 26.8798 37.8906 26.8798 38.2797 27.5784L39.9334 30.5407C40.0795 30.8022 40.3328 30.9861 40.627 31.0443L43.955 31.7011C44.0602 31.7215 44.1562 31.7573 44.2431 31.8042Z" fill="#FB8627"/>
</g>
</g>
<g id="Group_5">
<path id="Vector_7" d="M34.4961 24.815C34.4961 15.3489 26.8431 7.67016 17.3867 7.62859C7.90391 7.5868 0.122695 15.3322 0.122803 24.8151C0.12291 33.1151 6.00662 40.0408 13.8307 41.6491L16.4494 45.736C16.8513 46.3631 17.7677 46.3631 18.1696 45.736L20.7883 41.6491C28.6123 40.0408 34.4961 33.1151 34.4961 24.815Z" fill="#27D1B3"/>
<path id="Vector_8" d="M34.4964 24.8145C34.4964 33.1148 28.6128 40.0403 20.7884 41.6491L18.1693 45.7359C17.7679 46.3631 16.8517 46.3631 16.4492 45.7359L14.9548 43.405L17.4564 39.502C25.2808 37.8933 31.1644 30.9677 31.1644 22.6674C31.1644 17.316 28.7179 12.5356 24.8834 9.3833C30.5781 12.183 34.4964 18.0412 34.4964 24.8145Z" fill="#20B69F"/>
</g>
<g id="Group_6">
<path id="Vector_9" d="M46.9634 24.133C50.4147 16.9822 47.3875 8.38135 40.2007 4.97489C33.1642 1.63977 24.6739 4.59709 21.2323 11.582C18.1535 17.8307 20.0511 25.2167 25.368 29.2789L25.8207 33.028C25.91 33.7675 26.7353 34.1658 27.3699 33.7757L30.5868 31.7976C37.0379 33.4237 43.9586 30.3589 46.9634 24.133Z" fill="#F2EFF2"/>
<path id="Vector_10" d="M46.9634 24.133C43.9582 30.3587 37.0378 33.4232 30.5873 31.798L27.3697 33.7755C26.7354 34.1657 25.9101 33.7673 25.8212 33.0278L25.623 31.3925L27.4035 30.2975C33.8539 31.9237 40.7753 28.8593 43.7795 22.6335C46.9767 16.0083 44.6141 8.14002 38.5353 4.30957C39.0971 4.49348 39.6528 4.71509 40.2002 4.97451C47.3873 8.38107 50.4148 16.9818 46.9634 24.133Z" fill="#E1DDE1"/>
</g>
<g id="Group_7">
<path id="Vector_11" d="M17.8306 25.1156H7.02721C6.56884 25.1156 6.19727 24.744 6.19727 24.2856C6.19727 23.8273 6.56884 23.4557 7.02721 23.4557H17.8306C18.289 23.4557 18.6606 23.8273 18.6606 24.2856C18.6606 24.744 18.289 25.1156 17.8306 25.1156Z" fill="#C7F1E6"/>
<path id="Vector_12" d="M17.8306 28.3567H7.02721C6.56884 28.3567 6.19727 27.9851 6.19727 27.5267C6.19727 27.0682 6.56884 26.6968 7.02721 26.6968H17.8306C18.289 26.6968 18.6606 27.0683 18.6606 27.5267C18.6606 27.9851 18.289 28.3567 17.8306 28.3567Z" fill="#C7F1E6"/>
<path id="Vector_13" d="M17.8306 31.5977H7.02721C6.56884 31.5977 6.19727 31.2262 6.19727 30.7678C6.19727 30.3094 6.56884 29.9379 7.02721 29.9379H17.8306C18.289 29.9379 18.6606 30.3094 18.6606 30.7678C18.6606 31.2262 18.289 31.5977 17.8306 31.5977Z" fill="#C7F1E6"/>
<path id="Vector_14" d="M11.7979 19.9815H7.33263C6.87426 19.9815 6.50269 19.61 6.50269 19.1516C6.50269 18.6932 6.87426 18.3217 7.33263 18.3217H11.7979C12.2563 18.3217 12.6279 18.6932 12.6279 19.1516C12.6279 19.61 12.2563 19.9815 11.7979 19.9815Z" fill="#C7F1E6"/>
</g>
<g id="Group_8">
<path id="Vector_15" d="M35.1756 19.5902L32.6546 18.7764C32.1636 18.618 31.8832 18.1023 32.0169 17.604L36.5517 0.717325C36.6953 0.182579 37.2572 -0.122929 37.784 0.04712L41.9637 1.39623C42.4906 1.56628 42.7677 2.14271 42.5717 2.66048L36.3783 19.0119C36.1956 19.4942 35.6666 19.7487 35.1756 19.5902Z" fill="#F82F40"/>
<path id="Vector_16" d="M32.2219 27.0123C33.6487 27.0123 34.8054 25.8557 34.8054 24.4288C34.8054 23.002 33.6487 21.8453 32.2219 21.8453C30.7951 21.8453 29.6384 23.002 29.6384 24.4288C29.6384 25.8557 30.7951 27.0123 32.2219 27.0123Z" fill="#F82F40"/>
</g>
</g>
</g>
</svg>
