<svg width="60" height="55" viewBox="0 0 60 55" fill="none" xmlns="http://www.w3.org/2000/svg">
<g id="Chat">
<g id="Group">
<path id="Vector" d="M59.9149 11.117V53.2447C59.9149 54.2141 59.129 55 58.1596 55H1.75532C0.785915 55 0 54.2141 0 53.2447V11.117C0 10.1476 0.785915 9.3617 1.75532 9.3617H6.23595L8.24391 1.3296C8.43922 0.548245 9.14135 0 9.94681 0H24.2234C24.8883 0 25.496 0.375638 25.7935 0.97034L29.9892 9.3617H58.1596C59.129 9.3617 59.9149 10.1476 59.9149 11.117Z" fill="url(#paint0_linear_144_589)"/>
<path id="Vector_2" d="M29.9891 9.36173L26.4785 2.34045H53.4787C54.4481 2.34045 55.234 3.12637 55.234 4.09577V9.36173H29.9891ZM49.2659 28.6702C49.2659 35.4454 43.7539 40.9575 36.9787 40.9575H34.1951L27.688 47.4647C26.5822 48.5704 24.6915 47.7873 24.6915 46.2234V40.9575H22.9362C16.161 40.9575 10.6489 35.4454 10.6489 28.6702C10.6489 21.8951 16.161 16.383 22.9362 16.383H36.9787C43.7539 16.383 49.2659 21.8951 49.2659 28.6702ZM24.6915 28.6702C24.6915 27.7008 23.9056 26.9149 22.9362 26.9149C21.9668 26.9149 21.1808 27.7008 21.1808 28.6702C21.1808 29.6396 21.9668 30.4256 22.9362 30.4256C23.9056 30.4256 24.6915 29.6396 24.6915 28.6702ZM31.7128 28.6702C31.7128 27.7008 30.9268 26.9149 29.9574 26.9149C28.988 26.9149 28.2021 27.7008 28.2021 28.6702C28.2021 29.6396 28.988 30.4256 29.9574 30.4256C30.9268 30.4256 31.7128 29.6396 31.7128 28.6702ZM38.734 28.6702C38.734 27.7008 37.9481 26.9149 36.9787 26.9149C36.0093 26.9149 35.2234 27.7008 35.2234 28.6702C35.2234 29.6396 36.0093 30.4256 36.9787 30.4256C37.9481 30.4256 38.734 29.6396 38.734 28.6702Z" fill="url(#paint1_linear_144_589)"/>
</g>
</g>
<defs>
<linearGradient id="paint0_linear_144_589" x1="29.9574" y1="55" x2="29.9574" y2="0" gradientUnits="userSpaceOnUse">
<stop stop-color="#FFEDAD"/>
<stop offset="1" stop-color="#FFFFE5"/>
</linearGradient>
<linearGradient id="paint1_linear_144_589" x1="32.9415" y1="47.9823" x2="32.9415" y2="2.34045" gradientUnits="userSpaceOnUse">
<stop stop-color="#FD5900"/>
<stop offset="1" stop-color="#FFDE00"/>
</linearGradient>
</defs>
</svg>
