<svg width="49" height="55" viewBox="0 0 49 55" fill="none" xmlns="http://www.w3.org/2000/svg">
<g id="Contact book">
<g id="Group">
<path id="Vector" d="M45.1172 27.5H41.8945L38.6719 30.7227V40.3906H48.3398V30.7227L45.1172 27.5Z" fill="#DFE7F4"/>
<path id="Vector_2" d="M45.1172 17.832H41.8945L38.6719 21.0547V30.7227H48.3398V21.0547L45.1172 17.832Z" fill="#C7CFE1"/>
<path id="Vector_3" d="M38.6719 11.2793H48.3398V21.0547H38.6719V11.2793Z" fill="#DFE7F4"/>
<path id="Vector_4" d="M0 0V55H6.44531L9.66797 51.7773V3.22266L6.44531 0H0Z" fill="#61729B"/>
<path id="Vector_5" d="M33.8379 0H24.1699H6.44531V55H24.1699H33.8379C38.2801 55 41.8945 51.3856 41.8945 46.9434V8.05664C41.8945 3.61442 38.2801 0 33.8379 0Z" fill="#FF7B4A"/>
<path id="Vector_6" d="M41.8945 46.9434V8.05664C41.8945 3.61442 38.2801 0 33.8379 0H24.1699V55H33.8379C38.2801 55 41.8945 51.3856 41.8945 46.9434Z" fill="#FF435B"/>
<g id="Group_2">
<path id="Vector_7" d="M24.1699 22.666C26.8397 22.666 29.0039 20.5018 29.0039 17.832C29.0039 15.1623 26.8397 12.998 24.1699 12.998C21.5002 12.998 19.3359 15.1623 19.3359 17.832C19.3359 20.5018 21.5002 22.666 24.1699 22.666Z" fill="#F0F7FF"/>
<path id="Vector_8" d="M29.0039 17.832C29.0039 15.1665 26.8355 12.998 24.1699 12.998V22.666C26.8355 22.666 29.0039 20.4976 29.0039 17.832Z" fill="#DFE7F4"/>
<path id="Vector_9" d="M24.1699 22.666C19.7277 22.666 16.1133 26.2804 16.1133 30.7227V32.334H24.1699H32.2266V30.7227C32.2266 26.2804 28.6121 22.666 24.1699 22.666Z" fill="#F0F7FF"/>
<path id="Vector_10" d="M32.2266 30.7227C32.2266 26.2804 28.6121 22.666 24.1699 22.666V32.334H32.2266V30.7227Z" fill="#DFE7F4"/>
</g>
<path id="Vector_11" d="M16.1133 35.5566H32.2266V38.7793H16.1133V35.5566Z" fill="#FF435B"/>
<path id="Vector_12" d="M24.1699 35.5566H32.2266V38.7793H24.1699V35.5566Z" fill="#D0004F"/>
</g>
</g>
</svg>
