<svg width="55" height="55" viewBox="0 0 55 55" fill="none" xmlns="http://www.w3.org/2000/svg">
<g id="Group">
<path id="Vector" d="M12.8849 18.0615H2.26706C1.80568 18.0615 1.43164 17.6875 1.43164 17.2261V14.8822C1.43164 11.4888 4.18261 8.73779 7.57608 8.73779C10.9695 8.73779 13.7205 11.4888 13.7205 14.8822V17.2261C13.7203 17.6875 13.3464 18.0615 12.8849 18.0615Z" fill="#C3DA40"/>
<path id="Vector_2" d="M19.1167 38.8658C17.9264 38.0799 17.1618 37.1791 16.8438 36.1881C14.8404 35.3374 13.5471 33.3467 13.5471 31.1095C13.5471 28.0818 15.9331 25.6185 18.866 25.6185H25.6353C28.5682 25.6185 30.9542 28.0818 30.9542 31.1095C30.9542 34.1372 28.5683 36.6004 25.6353 36.6004H20.386C20.3409 37.0535 20.3592 37.5252 20.4403 38.0031L20.6836 39.4381C20.7171 39.6357 20.4987 39.7781 20.3315 39.6676L19.1167 38.8658Z" fill="#FF62A7"/>
<path id="Vector_3" d="M30.9541 31.1095C30.9541 28.0818 28.5682 25.6185 25.6353 25.6185H18.8659C18.1025 25.6185 17.3769 25.7868 16.72 26.0871C17.0026 30.6328 20.864 34.1835 25.4664 34.1835H30.0403C30.617 33.3058 30.9541 32.2475 30.9541 31.1095Z" fill="#FC5479"/>
<path id="Vector_4" d="M33.0727 34.9533C33.2421 34.224 33.2915 33.5082 33.22 32.825H26.6477C22.9518 32.825 19.8676 29.8901 19.8113 26.1946C19.754 22.4333 22.797 19.3551 26.5454 19.3551H35.0412C38.7449 19.3551 41.8265 22.3057 41.8699 26.0091C41.9026 28.7886 40.2553 31.2698 37.6895 32.3221C37.1371 33.9947 35.5659 35.1871 34.3419 35.8939L33.081 36.622C32.9074 36.7224 32.6978 36.567 32.7431 36.3717L33.0727 34.9533Z" fill="#31D2F7"/>
<path id="Vector_5" d="M25.3162 28.0241C25.2588 24.2627 28.3019 21.1846 32.0503 21.1846H39.7106C38.483 20.0492 36.8358 19.3551 35.0412 19.3551H26.5454C22.797 19.3551 19.754 22.4333 19.8113 26.1946C19.8677 29.89 22.9518 32.825 26.6477 32.825H27.4781C26.1763 31.6225 25.3453 29.9246 25.3162 28.0241Z" fill="#13ACE8"/>
<path id="Vector_6" d="M52.683 18.0615H42.0652C41.6038 18.0615 41.2297 17.6875 41.2297 17.2261V14.8822C41.2297 11.4888 43.9807 8.73779 47.3742 8.73779C50.7676 8.73779 53.5186 11.4888 53.5186 14.8822V17.2261C53.5184 17.6875 53.1443 18.0615 52.683 18.0615Z" fill="#FFCF59"/>
<path id="Vector_7" d="M12.8849 50.882H2.26706C1.80568 50.882 1.43164 50.508 1.43164 50.0465V47.7027C1.43164 44.3092 4.18261 41.5582 7.57608 41.5582C10.9695 41.5582 13.7205 44.3092 13.7205 47.7027V50.0465C13.7203 50.5079 13.3464 50.882 12.8849 50.882Z" fill="#FF62A7"/>
<path id="Vector_8" d="M52.683 50.882H42.0652C41.6038 50.882 41.2297 50.508 41.2297 50.0465V47.7027C41.2297 44.3092 43.9807 41.5582 47.3742 41.5582C50.7676 41.5582 53.5186 44.3092 53.5186 47.7027V50.0465C53.5184 50.5079 53.1443 50.882 52.683 50.882Z" fill="#31D2F7"/>
<path id="Vector_9" d="M6.15303 17.2261V14.8822C6.15303 12.3255 7.71505 10.1341 9.93665 9.20852C9.20972 8.90569 8.41244 8.73779 7.57583 8.73779C4.18237 8.73779 1.4314 11.4888 1.4314 14.8822V17.2261C1.4314 17.6875 1.80544 18.0615 2.26693 18.0615H6.98845C6.52707 18.0615 6.15303 17.6875 6.15303 17.2261Z" fill="#ADBC15"/>
<path id="Vector_10" d="M45.9511 17.2261V14.8822C45.9511 12.3255 47.5131 10.1341 49.7347 9.20852C49.0078 8.90569 48.2105 8.73779 47.3739 8.73779C43.9805 8.73779 41.2295 11.4888 41.2295 14.8822V17.2261C41.2295 17.6875 41.6035 18.0615 42.065 18.0615H46.7865C46.3252 18.0615 45.9511 17.6875 45.9511 17.2261Z" fill="#FFB55C"/>
<path id="Vector_11" d="M6.15303 50.0464V47.7025C6.15303 45.1458 7.71505 42.9543 9.93665 42.0288C9.20972 41.726 8.41244 41.5581 7.57583 41.5581C4.18237 41.5581 1.4314 44.3091 1.4314 47.7025V50.0464C1.4314 50.5078 1.80544 50.8819 2.26693 50.8819H6.98845C6.52707 50.882 6.15303 50.5079 6.15303 50.0464Z" fill="#FC5479"/>
<path id="Vector_12" d="M45.9511 50.0464V47.7025C45.9511 45.1458 47.5131 42.9543 49.7347 42.0288C49.0078 41.726 48.2105 41.5581 47.3739 41.5581C43.9805 41.5581 41.2295 44.3091 41.2295 47.7025V50.0464C41.2295 50.5078 41.6035 50.8819 42.065 50.8819H46.7865C46.3252 50.882 45.9511 50.5079 45.9511 50.0464Z" fill="#13ACE8"/>
<path id="Vector_13" d="M25.9684 54.9783C25.9513 54.9783 25.9342 54.9779 25.917 54.9768C24.8537 54.9165 23.7853 54.7935 22.7411 54.6112C22.2543 54.5262 21.9286 54.0627 22.0136 53.5758C22.0987 53.089 22.5613 52.7631 23.049 52.8483C24.0251 53.0186 25.0241 53.1337 26.0184 53.1901C26.5118 53.218 26.889 53.6407 26.8611 54.1341C26.8339 54.6103 26.4394 54.9783 25.9684 54.9783ZM29.0598 54.9767C28.5892 54.9767 28.1949 54.6093 28.1674 54.1337C28.1388 53.6403 28.5156 53.2173 29.0089 53.1888C30.0031 53.1312 31.0021 53.0152 31.9783 52.8439C32.4647 52.7581 32.9288 53.0836 33.0142 53.5704C33.0999 54.0572 32.7745 54.5209 32.2877 54.6064C31.2437 54.7898 30.1754 54.914 29.1124 54.9754C29.0948 54.9763 29.0773 54.9767 29.0598 54.9767ZM19.8847 53.916C19.7999 53.916 19.7139 53.9039 19.6286 53.8784C18.61 53.5746 17.5983 53.2072 16.6213 52.786C16.1676 52.5902 15.9583 52.0639 16.154 51.6101C16.3496 51.1563 16.8762 50.9472 17.3299 51.1427C18.2427 51.5363 19.1883 51.8797 20.1399 52.1638C20.6135 52.305 20.883 52.8034 20.7417 53.277C20.626 53.6649 20.2701 53.916 19.8847 53.916ZM35.1429 53.908C34.7578 53.908 34.4022 53.6574 34.286 53.2696C34.1442 52.7962 34.4131 52.2974 34.8865 52.1557C35.8374 51.871 36.7821 51.5268 37.6943 51.1323C38.1481 50.9361 38.6746 51.1449 38.8707 51.5984C39.0669 52.0519 38.8581 52.5787 38.4046 52.7748C37.4284 53.1968 36.4176 53.5653 35.3999 53.8701C35.3143 53.8956 35.2279 53.908 35.1429 53.908ZM2.50079 37.5415C2.13544 37.5415 1.79266 37.3163 1.66021 36.9533C1.29573 35.9553 0.986672 34.9247 0.741213 33.8902C0.627238 33.4094 0.924582 32.9271 1.4054 32.813C1.8873 32.699 2.36855 32.9963 2.48263 33.4772C2.71176 34.4438 3.00073 35.4069 3.34126 36.3394C3.51077 36.8036 3.27186 37.3174 2.80758 37.4868C2.70639 37.524 2.60273 37.5415 2.50079 37.5415ZM52.5083 37.5167C52.4067 37.5167 52.3035 37.4993 52.2024 37.4625C51.738 37.2935 51.4986 36.7801 51.6674 36.3157C52.0073 35.3818 52.2952 34.4177 52.5236 33.4508C52.6371 32.9697 53.1198 32.6721 53.6001 32.7856C54.081 32.899 54.3789 33.381 54.2654 33.8619C54.0212 34.8968 53.713 35.9283 53.3491 36.9278C53.2171 37.2909 52.8738 37.5167 52.5083 37.5167ZM1.07411 31.5325C0.626378 31.5325 0.239659 31.1969 0.186593 30.7413C0.0638091 29.6893 0.00107457 28.616 3.45734e-07 27.5508C-0.000429343 27.0566 0.399718 26.6556 0.893859 26.6551C0.894182 26.6551 0.894504 26.6551 0.894826 26.6551C1.38865 26.6551 1.78912 27.0551 1.78954 27.549C1.79062 28.5457 1.84916 29.5499 1.96389 30.5339C2.02125 31.0247 1.66977 31.4691 1.17885 31.5264C1.14383 31.5306 1.1087 31.5325 1.07411 31.5325ZM53.9292 31.5044C53.8948 31.5044 53.8602 31.5024 53.8252 31.4983C53.3344 31.4416 52.9824 30.9976 53.0392 30.5067C53.153 29.5226 53.2106 28.5183 53.2106 27.5217V27.4651C53.2106 26.9709 53.6111 26.5703 54.1053 26.5703C54.5994 26.5703 55 26.9709 55 27.4651V27.5217C55 28.5867 54.9383 29.6602 54.8167 30.7122C54.7642 31.1682 54.3774 31.5044 53.9292 31.5044ZM1.07003 25.357C1.03598 25.357 1.00171 25.3551 0.967014 25.3511C0.475988 25.2949 0.123643 24.8514 0.179932 24.3604C0.30089 23.3035 0.485333 22.2437 0.727892 21.2104C0.8409 20.7292 1.32269 20.4305 1.80372 20.5439C2.28487 20.6568 2.58318 21.1384 2.47028 21.6195C2.2434 22.5853 2.0711 23.576 1.95798 24.5639C1.90567 25.0201 1.51863 25.357 1.07003 25.357ZM53.9204 25.2727C53.473 25.2727 53.0866 24.9376 53.033 24.4824C52.9168 23.4949 52.7412 22.5049 52.5114 21.5396C52.3968 21.0588 52.6936 20.5762 53.1744 20.4617C53.6551 20.347 54.1376 20.644 54.2522 21.1247C54.4982 22.1574 54.686 23.2166 54.8103 24.273C54.8681 24.7638 54.517 25.2085 54.0263 25.2662C53.9907 25.2706 53.9553 25.2727 53.9204 25.2727ZM14.1659 5.3894C13.8573 5.3894 13.5572 5.22966 13.3912 4.94359C13.1431 4.51616 13.2884 3.96852 13.716 3.72059C14.6353 3.18703 15.5951 2.70245 16.569 2.28017C17.0223 2.08359 17.5493 2.29177 17.7458 2.74509C17.9425 3.19841 17.7343 3.72543 17.2809 3.92201C16.3708 4.31668 15.4736 4.76968 14.6143 5.26833C14.4729 5.3504 14.3183 5.3894 14.1659 5.3894ZM40.7643 5.34911C40.6127 5.34911 40.4591 5.31055 40.3183 5.22944C39.4566 4.73283 38.5572 4.2823 37.6452 3.89021C37.1912 3.69503 36.9813 3.16877 37.1764 2.7148C37.3715 2.26083 37.8977 2.0505 38.3518 2.24612C39.3278 2.6656 40.2899 3.1476 41.2118 3.67891C41.64 3.92566 41.787 4.47276 41.5403 4.90095C41.3748 5.1883 41.0738 5.34911 40.7643 5.34911ZM19.8297 2.93383C19.445 2.93383 19.0897 2.68376 18.9731 2.29639C18.8308 1.82309 19.0991 1.32411 19.5724 1.18189C20.5895 0.876164 21.6363 0.627374 22.6836 0.442286C23.1706 0.356456 23.6344 0.681085 23.7204 1.16781C23.8065 1.65444 23.4816 2.11861 22.9949 2.20465C22.0162 2.3775 21.038 2.61006 20.0876 2.89581C20.0018 2.92159 19.9149 2.93383 19.8297 2.93383ZM35.0892 2.90934C35.0048 2.90934 34.9192 2.89742 34.834 2.87207C33.8823 2.58944 32.9035 2.36009 31.9244 2.19037C31.4375 2.10593 31.1112 1.64284 31.1957 1.15589C31.2801 0.668947 31.7437 0.342813 32.2302 0.427139C33.2777 0.608683 34.3251 0.85425 35.3436 1.15664C35.8173 1.29737 36.0873 1.79548 35.9465 2.26911C35.8312 2.65787 35.4751 2.90934 35.0892 2.90934ZM25.9104 1.85789C25.4402 1.85789 25.046 1.49116 25.018 1.01581C24.9888 0.52253 25.3653 0.098965 25.8585 0.069961C26.4012 0.0378418 26.9525 0.0217285 27.4972 0.0217285C27.4982 0.0217285 27.4991 0.0217285 27.5002 0.0217285C28.0174 0.0217285 28.5403 0.0362305 29.0541 0.0650196C29.5475 0.0926271 29.9252 0.514796 29.8976 1.00829C29.8702 1.50168 29.4503 1.88002 28.9543 1.85177C28.4736 1.82502 27.9842 1.81127 27.4999 1.81127C27.4991 1.81127 27.4982 1.81127 27.4973 1.81127C26.9875 1.81127 26.4716 1.82642 25.9637 1.85639C25.946 1.85746 25.928 1.85789 25.9104 1.85789Z" fill="#FFCF59"/>
<g id="Group_2">
<path id="Vector_14" d="M7.52297 12.2358C5.32747 12.2358 3.54126 10.4496 3.54126 8.25403C3.54126 6.05843 5.32747 4.27222 7.52297 4.27222C9.71857 4.27222 11.5048 6.05843 11.5048 8.25403C11.5048 10.4496 9.71857 12.2358 7.52297 12.2358Z" fill="#FAD393"/>
<path id="Vector_15" d="M47.3208 12.2358C45.1253 12.2358 43.3391 10.4496 43.3391 8.25403C43.3391 6.05843 45.1253 4.27222 47.3208 4.27222C49.5164 4.27222 51.3026 6.05843 51.3026 8.25403C51.3026 10.4496 49.5164 12.2358 47.3208 12.2358Z" fill="#FAD393"/>
<path id="Vector_16" d="M7.52297 45.0564C5.32747 45.0564 3.54126 43.2701 3.54126 41.0746C3.54126 38.8791 5.32747 37.0928 7.52297 37.0928C9.71857 37.0928 11.5048 38.879 11.5048 41.0746C11.5048 43.2702 9.71857 45.0564 7.52297 45.0564Z" fill="#FAD393"/>
<path id="Vector_17" d="M47.3208 45.0564C45.1253 45.0564 43.3391 43.2701 43.3391 41.0746C43.3391 38.8791 45.1253 37.0928 47.3208 37.0928C49.5164 37.0928 51.3026 38.879 51.3026 41.0746C51.3026 43.2702 49.5164 45.0564 47.3208 45.0564Z" fill="#FAD393"/>
</g>
<g id="Group_3">
<path id="Vector_18" d="M7.30154 8.25414C7.30154 6.7382 8.15318 5.41777 9.40304 4.7453C8.84273 4.44388 8.20238 4.27222 7.52272 4.27222C5.32723 4.27222 3.54102 6.05843 3.54102 8.25403C3.54102 10.4496 5.32723 12.2358 7.52272 12.2358C8.20238 12.2358 8.84262 12.0643 9.40304 11.7628C8.15318 11.0904 7.30154 9.76997 7.30154 8.25414Z" fill="#EDB769"/>
<path id="Vector_19" d="M47.0996 8.25414C47.0996 6.7382 47.9513 5.41777 49.2011 4.7453C48.6407 4.44388 48.0005 4.27222 47.3208 4.27222C45.1253 4.27222 43.3391 6.05843 43.3391 8.25403C43.3391 10.4496 45.1253 12.2358 47.3208 12.2358C48.0005 12.2358 48.6407 12.0643 49.2011 11.7628C47.9514 11.0904 47.0996 9.76997 47.0996 8.25414Z" fill="#EDB769"/>
<path id="Vector_20" d="M7.30154 41.0746C7.30154 39.5586 8.15318 38.2382 9.40304 37.5657C8.84273 37.2643 8.20238 37.0927 7.52272 37.0927C5.32723 37.0927 3.54102 38.8789 3.54102 41.0745C3.54102 43.2701 5.32723 45.0563 7.52272 45.0563C8.20238 45.0563 8.84262 44.8847 9.40304 44.5832C8.15318 43.9109 7.30154 42.5905 7.30154 41.0746Z" fill="#EDB769"/>
<path id="Vector_21" d="M47.0996 41.0746C47.0996 39.5586 47.9513 38.2382 49.2011 37.5657C48.6407 37.2643 48.0005 37.0927 47.3208 37.0927C45.1253 37.0927 43.3391 38.8789 43.3391 41.0745C43.3391 43.2701 45.1253 45.0563 47.3208 45.0563C48.0005 45.0563 48.6407 44.8847 49.2011 44.5832C47.9514 43.9109 47.0996 42.5905 47.0996 41.0746Z" fill="#EDB769"/>
</g>
</g>
</svg>
