<svg width="55" height="55" viewBox="0 0 55 55" fill="none" xmlns="http://www.w3.org/2000/svg">
<g id="People">
<g id="Group">
<path id="Vector" d="M0.36357 31.9829C0.137017 30.6014 0.013482 29.185 0.00102104 27.7423C-0.129819 12.574 12.3312 0 27.5002 0C42.6879 0 55.0001 12.3122 55.0001 27.5C55.0001 29.2665 54.8334 30.9941 54.5153 32.6679C53.9789 35.4885 51.4862 37.5134 48.6151 37.5134H6.91652C3.67635 37.5134 0.887896 35.1805 0.36357 31.9829Z" fill="#2CB3CD"/>
<path id="Vector_2" d="M5.56755 29.4465C5.38451 28.3298 5.28461 27.1852 5.27451 26.0191C5.1687 13.7596 15.24 3.59692 27.5 3.59692C39.7752 3.59692 49.7262 13.5479 49.7262 25.8232C49.7262 27.2509 49.5916 28.6472 49.3343 30C48.9009 32.2797 46.8862 33.9163 44.5657 33.9163H10.8639C8.24494 33.9163 5.99133 32.0308 5.56755 29.4465Z" fill="#44BFD7"/>
<path id="Vector_3" d="M8.72586 30.0095C6.95952 32.2439 4.85362 34.1976 2.48615 35.7926C1.98428 36.1306 1.29388 35.8823 1.12254 35.3019C0.771269 34.1126 0.49831 32.8898 0.30957 31.6394C1.3781 30.629 2.81991 30.0095 4.40653 30.0095H8.72586Z" fill="#3D4EC6"/>
<path id="Vector_4" d="M25.7073 35.9738V43.6946C25.7073 49.5976 19.7745 53.7124 14.278 51.5596C14.0447 51.4682 13.8486 51.3782 13.6974 51.2902C7.63159 47.7633 3.03802 41.9832 1.06274 35.0961C1.48717 32.2182 3.967 30.0095 6.96278 30.0095H19.7431C23.0371 30.0096 25.7073 32.6799 25.7073 35.9738Z" fill="#5766CE"/>
<path id="Vector_5" d="M18.3625 29.4345L14.5639 35.9438C14.4809 36.0859 14.2756 36.0859 14.1927 35.9438L12.2613 32.634C12.1783 32.4919 11.973 32.4919 11.8901 32.634L9.95867 35.9438C9.87574 36.0859 9.67046 36.0859 9.58753 35.9438L5.78888 29.4345C5.7053 29.2913 5.80864 29.1113 5.9744 29.1113H18.1769C18.3427 29.1113 18.4461 29.2913 18.3625 29.4345Z" fill="#FCF2B6"/>
<path id="Vector_6" d="M22.8103 12.2212V20.6375H1.33936V11.583C1.33936 11.3968 1.46729 11.2348 1.64852 11.1917L16.9074 7.55869C19.919 6.84154 22.8103 9.12522 22.8103 12.2212Z" fill="#FF9F22"/>
<path id="Vector_7" d="M4.83254 19.3595V20.2116C4.83254 21.388 3.87885 22.3417 2.70247 22.3417C1.52609 22.3417 0.57251 21.3879 0.57251 20.2115V19.3594C0.57251 18.1831 1.5262 17.2294 2.70258 17.2294C3.87896 17.2294 4.83254 18.1832 4.83254 19.3595Z" fill="#FFBEAA"/>
<path id="Vector_8" d="M1.85051 18.9336V20.6377C1.85051 21.3345 2.18513 21.953 2.70236 22.3417C1.52609 22.3416 0.57251 21.388 0.57251 20.2116V19.3597C0.57251 18.1833 1.52609 17.2297 2.70236 17.2296C2.18513 17.6182 1.85051 18.2368 1.85051 18.9336ZM12.0748 6.15332C6.89869 6.15332 2.70258 10.3494 2.70258 15.5256V18.9336C2.70258 23.2236 5.58492 26.8404 9.51871 27.9531V30.862C9.51871 32.2736 10.6631 33.4181 12.0748 33.4181C13.4864 33.4181 14.6309 32.2737 14.6309 30.862V27.9531C18.5647 26.8405 21.447 23.2237 21.447 18.9336V15.5256C21.447 10.3494 17.2509 6.15332 12.0748 6.15332Z" fill="#FAA68E"/>
<path id="Vector_9" d="M21.447 15.5256V18.9337C21.447 23.2613 18.514 26.9038 14.5272 27.9817C13.7584 28.1896 12.9472 28.1896 12.1783 27.9817C8.1917 26.9038 5.25854 23.2613 5.25854 18.9337V15.5256C5.25854 10.783 8.78123 6.86313 13.3528 6.23987C17.9243 6.86313 21.447 10.783 21.447 15.5256Z" fill="#FFBEAA"/>
<path id="Vector_10" d="M10.8394 19.507C10.5898 19.2573 10.5898 18.8528 10.8394 18.6032C11.0889 18.3538 11.4936 18.3538 11.7431 18.6032C11.8318 18.6919 11.9497 18.7409 12.0748 18.7409C12.2 18.7409 12.3177 18.6921 12.4065 18.6032C12.6561 18.3538 13.0607 18.3538 13.3103 18.6032C13.5598 18.8529 13.5598 19.2574 13.3103 19.507C12.9802 19.8371 12.5413 20.0189 12.0749 20.0189C11.6083 20.0189 11.1696 19.8371 10.8394 19.507ZM14.6567 21.8586C14.4072 21.6092 14.0025 21.6092 13.753 21.8586C12.8275 22.7841 11.322 22.7841 10.3966 21.8586C10.147 21.6092 9.74236 21.6092 9.49282 21.8586C9.24328 22.1083 9.24328 22.5128 9.49282 22.7624C10.2046 23.4742 11.1397 23.83 12.0747 23.83C13.0097 23.83 13.9448 23.4742 14.6566 22.7624C14.9062 22.5127 14.9062 22.1082 14.6567 21.8586Z" fill="#E09380"/>
<path id="Vector_11" d="M9.30575 16.1645C9.30575 16.8703 8.73352 17.4425 8.02775 17.4425C7.32189 17.4425 6.74976 16.8702 6.74976 16.1645C6.74976 15.4586 7.32199 14.8865 8.02775 14.8865C8.73352 14.8865 9.30575 15.4587 9.30575 16.1645ZM16.1219 14.8865C15.416 14.8865 14.8439 15.4587 14.8439 16.1645C14.8439 16.8703 15.4161 17.4425 16.1219 17.4425C16.8278 17.4425 17.3999 16.8702 17.3999 16.1645C17.4 15.4587 16.8278 14.8865 16.1219 14.8865Z" fill="#4C2C21"/>
<path id="Vector_12" d="M9.51883 15.5255C9.51883 15.8784 9.23276 16.1646 8.87978 16.1646C8.5269 16.1646 8.24072 15.8785 8.24072 15.5255C8.24072 15.1725 8.52679 14.8865 8.87978 14.8865C9.23276 14.8865 9.51883 15.1725 9.51883 15.5255ZM16.974 14.8865C16.6211 14.8865 16.335 15.1725 16.335 15.5255C16.335 15.8785 16.621 16.1646 16.974 16.1646C17.327 16.1646 17.6131 15.8785 17.6131 15.5255C17.6131 15.1725 17.3269 14.8865 16.974 14.8865Z" fill="#FFF5F5"/>
<path id="Vector_13" d="M14.9717 8.28311C14.9717 10.8712 12.8737 12.9693 10.2857 12.9693H2.61735C1.91148 12.9693 1.33936 12.397 1.33936 11.6913C1.33936 7.22103 4.96323 3.59705 9.4336 3.59705H10.2857C12.8737 3.59694 14.9717 5.695 14.9717 8.28311Z" fill="#FF9F22"/>
<path id="Vector_14" d="M5.59937 8.2831C5.59937 5.69498 7.69742 3.59692 10.2854 3.59692H22.3841C22.6194 3.59692 22.8102 3.78771 22.8102 4.02296C22.8102 8.96383 18.8048 12.9692 13.864 12.9692H10.2854C7.69742 12.9692 5.59937 10.8711 5.59937 8.2831Z" fill="#FFB52D"/>
<path id="Vector_15" d="M53.5534 12.3676V27.2834H43.5334V11.947H53.133C53.3651 11.947 53.5534 12.1353 53.5534 12.3676Z" fill="#2B3894"/>
<path id="Vector_16" d="M37.2067 11.947V27.2834H32.0823V12.2225C32.0823 12.0703 32.2056 11.947 32.3577 11.947H37.2067Z" fill="#232E7A"/>
<path id="Vector_17" d="M40.2619 30.6913V28.6345C36.3281 27.5219 33.4457 23.9051 33.4457 19.615V16.207C33.4457 11.0308 37.6418 6.83472 42.818 6.83472C47.9941 6.83472 52.1902 11.0308 52.1902 16.207V17.911C53.3666 17.911 54.3203 18.8647 54.3203 20.0411V20.8424C54.3203 22.0108 53.4009 23 52.2327 23.0228C52.0073 23.0272 51.7896 22.9966 51.5849 22.9359C50.5409 25.6907 48.2357 27.8252 45.3741 28.6345V30.6913H50.4862C50.7066 30.6913 50.9242 30.7032 51.1384 30.7265C52.0304 30.8235 52.5443 31.7961 52.1335 32.5938C48.1607 40.3067 40.6474 45.898 31.7417 47.2196V36.6555C31.7417 33.3616 34.412 30.6913 37.7059 30.6913H40.2619Z" fill="#D47F6C"/>
<path id="Vector_18" d="M52.1902 16.2069V19.615C52.1902 23.9426 49.2571 27.585 45.2704 28.663C44.5016 28.8709 43.6903 28.8709 42.9215 28.663C38.9349 27.585 36.0017 23.9426 36.0017 19.615V16.2069C36.0017 11.4642 39.5244 7.5444 44.0959 6.92114C48.6675 7.5444 52.1902 11.4642 52.1902 16.2069Z" fill="#E09380"/>
<path id="Vector_19" d="M41.5824 20.1885C41.3328 19.9388 41.3328 19.5343 41.5824 19.2847C41.8319 19.0353 42.2366 19.0353 42.4861 19.2847C42.5749 19.3735 42.6927 19.4224 42.8178 19.4224C42.943 19.4224 43.0607 19.3736 43.1496 19.2847C43.3991 19.0353 43.8038 19.0353 44.0533 19.2847C44.3028 19.5344 44.3028 19.9389 44.0533 20.1885C43.7232 20.5186 43.2844 20.7004 42.8179 20.7004C42.3513 20.7004 41.9125 20.5187 41.5824 20.1885ZM45.3996 22.5402C45.1501 22.2907 44.7454 22.2907 44.4959 22.5402C43.5704 23.4656 42.0649 23.4656 41.1395 22.5402C40.8899 22.2907 40.4853 22.2907 40.2357 22.5402C39.9862 22.7898 39.9862 23.1944 40.2357 23.4439C40.9475 24.1557 41.8826 24.5116 42.8176 24.5116C43.7526 24.5116 44.6877 24.1557 45.3995 23.4439C45.6493 23.1942 45.6493 22.7897 45.3996 22.5402Z" fill="#B2705B"/>
<path id="Vector_20" d="M40.0489 16.8459C40.0489 17.5517 39.4767 18.1239 38.7709 18.1239C38.065 18.1239 37.4929 17.5516 37.4929 16.8459C37.4929 16.14 38.0652 15.5679 38.7709 15.5679C39.4767 15.5677 40.0489 16.14 40.0489 16.8459ZM46.865 15.5677C46.1592 15.5677 45.5871 16.14 45.5871 16.8457C45.5871 17.5516 46.1593 18.1237 46.865 18.1237C47.5709 18.1237 48.143 17.5515 48.143 16.8457C48.143 16.14 47.5709 15.5677 46.865 15.5677Z" fill="#232E7A"/>
<path id="Vector_21" d="M40.262 16.2068C40.262 16.5597 39.9759 16.8459 39.6229 16.8459C39.2701 16.8459 38.9839 16.5598 38.9839 16.2068C38.9839 15.8539 39.2699 15.5677 39.6229 15.5677C39.9758 15.5677 40.262 15.8539 40.262 16.2068ZM47.7172 15.5677C47.3643 15.5677 47.0781 15.8538 47.0781 16.2068C47.0781 16.5597 47.3642 16.8459 47.7172 16.8459C48.0702 16.8459 48.3562 16.5598 48.3562 16.2068C48.3561 15.8539 48.0701 15.5677 47.7172 15.5677Z" fill="#FFF5F5"/>
<path id="Vector_22" d="M44.8626 6.83491C44.8626 10.5994 41.8108 13.651 38.0464 13.651H33.3603C32.6544 13.651 32.0823 13.0788 32.0823 12.373C32.0823 7.90279 35.7062 4.27881 40.1765 4.27881H42.3066C43.7182 4.27881 44.8626 5.42328 44.8626 6.83491Z" fill="#232E7A"/>
<path id="Vector_23" d="M53.5536 11.2359V13.651H48.7246C45.6508 13.651 43.1589 11.1592 43.1589 8.08541V7.71642C43.1589 5.81784 44.698 4.27881 46.5965 4.27881C50.4388 4.27881 53.5536 7.39361 53.5536 11.2359Z" fill="#2B3894"/>
<path id="Vector_24" d="M44.9747 48.735C44.9656 48.7424 44.9566 48.7498 44.9476 48.7572C43.7054 49.778 42.3719 50.6921 40.9616 51.4854C40.8266 51.5613 40.6609 51.6072 40.4782 51.6308C39.228 51.7924 38.1313 50.7838 38.1313 49.5232V38.3596H47.5036V43.3275C47.5037 45.4156 46.5863 47.4071 44.9747 48.735Z" fill="#FFC14F"/>
<path id="Vector_25" d="M54.5794 32.3179C53.4156 38.9043 49.9076 44.6816 44.948 48.7572V34.0346C47.065 33.5625 49.0324 32.3975 50.7459 30.697C52.228 30.7605 53.57 31.365 54.5794 32.3179ZM29.1855 36.6556V48.382C31.8389 50.5089 40.6879 47.9321 40.6879 47.9321V34.0346C38.5709 33.5625 36.6035 32.3975 34.89 30.697C31.7166 30.833 29.1855 33.4487 29.1855 36.6556Z" fill="#FFDE91"/>
<path id="Vector_26" d="M35.3797 31.1622C33.2415 32.0686 31.7416 34.1869 31.7416 36.6556V50.1482C30.8466 49.6196 29.9926 49.0289 29.1855 48.382V36.6556C29.1855 33.4487 31.7165 30.833 34.89 30.697C35.0511 30.8569 35.2143 31.0119 35.3797 31.1622Z" fill="#FFCD71"/>
<path id="Vector_27" d="M16.2534 52.6025C15.3759 52.2088 14.523 51.7705 13.6973 51.2904V48.0204C13.6973 44.7266 16.3676 42.0563 19.6614 42.0563H23.4737C20.1799 42.0563 17.5096 44.7266 17.5096 48.0204V52.2222C17.5096 52.2224 16.6667 52.788 16.2534 52.6025Z" fill="#D3D3D8"/>
<path id="Vector_28" d="M40.962 48.0206V51.4853C36.9828 53.7235 32.3906 55.0001 27.5001 55.0001C23.4932 55.0001 19.6866 54.1432 16.2534 52.6026V48.0206C16.2534 44.7267 18.9236 42.0564 22.2176 42.0564H34.9979C38.2918 42.0564 40.962 44.7267 40.962 48.0206Z" fill="#ECECF1"/>
<path id="Vector_29" d="M28.7402 49.2932V54.9726C28.3291 54.9908 27.9155 55 27.4999 55C26.9018 55 26.3082 54.9809 25.7195 54.9433V49.2932C25.7195 48.9596 25.99 48.6891 26.3236 48.6891H28.136C28.4697 48.689 28.7402 48.9596 28.7402 49.2932Z" fill="#232E7A"/>
<path id="Vector_30" d="M28.136 48.9011H26.3236C25.99 48.9011 25.7195 48.6306 25.7195 48.297V44.7749C25.7195 44.4413 25.99 44.1708 26.3236 44.1708H28.136C28.4697 44.1708 28.7402 44.4413 28.7402 44.7749V48.297C28.7402 48.6306 28.4697 48.9011 28.136 48.9011Z" fill="#3342AE"/>
<path id="Vector_31" d="M33.4277 41.8506L30.0032 47.7188C29.8373 48.003 29.4268 48.003 29.261 47.7188L27.3296 44.4091L25.3981 47.7188C25.2323 48.003 24.8217 48.003 24.6558 47.7188L21.2313 41.8506C21.0642 41.5641 21.2708 41.2043 21.6025 41.2043H33.0567C33.3882 41.2043 33.5948 41.5642 33.4277 41.8506Z" fill="#D3D3D8"/>
<path id="Vector_32" d="M29.3743 23.8662V32.6842H16.594V23.648C16.594 23.4624 16.6836 23.312 16.794 23.312H29.0444C29.2266 23.312 29.3743 23.5602 29.3743 23.8662Z" fill="#7C3F2C"/>
<path id="Vector_33" d="M38.065 24.1222V32.6842H21.9192V23.312H37.2548C37.7023 23.312 38.065 23.6748 38.065 24.1222Z" fill="#954C35"/>
<path id="Vector_34" d="M17.9577 34.3881C16.7813 34.3881 15.8276 33.4344 15.8276 32.258V31.4059C15.8276 30.2296 16.7813 29.2759 17.9577 29.2759C19.1341 29.2759 20.0878 30.2296 20.0878 31.4059V32.258C20.0877 33.4344 19.1341 34.3881 17.9577 34.3881Z" fill="#FFBEAA"/>
<path id="Vector_35" d="M17.1056 30.9799V32.6839C17.1056 33.3808 17.4403 33.9994 17.9575 34.388C16.7812 34.3878 15.8276 33.4343 15.8276 32.2579V31.4058C15.8276 30.2294 16.7812 29.2759 17.9575 29.2757C17.4403 29.6644 17.1056 30.283 17.1056 30.9799ZM36.7022 29.2759V27.5718C36.7022 22.3957 32.5061 18.1996 27.3299 18.1996C22.1538 18.1996 17.9577 22.3957 17.9577 27.5718V30.9799C17.9577 35.2699 20.84 38.8867 24.7738 39.9994V42.9082C24.7738 44.3199 25.9182 45.4643 27.3299 45.4643C28.7416 45.4643 29.886 44.32 29.886 42.9082V39.9994C32.7477 39.19 35.0528 37.0556 36.0968 34.3007C36.2887 34.3576 36.4919 34.3881 36.7022 34.3881C37.8785 34.3881 38.8322 33.4344 38.8322 32.258V31.4059C38.8322 30.2294 37.8785 29.2759 36.7022 29.2759Z" fill="#FAA68E"/>
<path id="Vector_36" d="M36.7021 27.5718V30.9798C36.7021 35.3074 33.7691 38.9499 29.7824 40.0279C29.0136 40.2357 28.2023 40.2357 27.4335 40.0279C23.4468 38.9499 20.5137 35.3074 20.5137 30.9798V27.5718C20.5137 22.8291 24.0364 18.9093 28.6079 18.286C33.1795 18.9093 36.7021 22.8291 36.7021 27.5718Z" fill="#FFBEAA"/>
<path id="Vector_37" d="M26.0942 31.5537C25.8447 31.3041 25.8447 30.8995 26.0942 30.65C26.3438 30.4005 26.7484 30.4005 26.998 30.65C27.0867 30.7387 27.2045 30.7877 27.3297 30.7877C27.4548 30.7877 27.5726 30.7387 27.6614 30.65C27.911 30.4005 28.3156 30.4005 28.5652 30.65C28.8147 30.8996 28.8147 31.3042 28.5652 31.5537C28.235 31.8838 27.7962 32.0657 27.3298 32.0657C26.8632 32.0657 26.4244 31.8838 26.0942 31.5537ZM29.9116 33.9053C29.662 33.6558 29.2574 33.6558 29.0078 33.9053C28.0824 34.8307 26.5769 34.8307 25.6514 33.9053C25.4019 33.6558 24.9972 33.6558 24.7477 33.9053C24.4982 34.1549 24.4982 34.5595 24.7477 34.809C25.4595 35.5208 26.3946 35.8767 27.3296 35.8767C28.2646 35.8767 29.1997 35.5208 29.9115 34.809C30.1611 34.5595 30.1611 34.1549 29.9116 33.9053Z" fill="#E09380"/>
<path id="Vector_38" d="M24.5606 28.2106C24.5606 28.9165 23.9884 29.4886 23.2826 29.4886C22.5768 29.4886 22.0046 28.9164 22.0046 28.2106C22.0046 27.5047 22.5769 26.9326 23.2826 26.9326C23.9884 26.9326 24.5606 27.5049 24.5606 28.2106ZM31.3768 26.9326C30.6709 26.9326 30.0988 27.5049 30.0988 28.2106C30.0988 28.9165 30.671 29.4886 31.3768 29.4886C32.0826 29.4886 32.6548 28.9164 32.6548 28.2106C32.6549 27.5049 32.0826 26.9326 31.3768 26.9326Z" fill="#232E7A"/>
<path id="Vector_39" d="M24.7732 27.5717C24.7732 27.9246 24.4872 28.2107 24.1342 28.2107C23.7813 28.2107 23.4951 27.9247 23.4951 27.5717C23.4951 27.2188 23.7812 26.9326 24.1342 26.9326C24.4872 26.9326 24.7732 27.2187 24.7732 27.5717ZM32.2284 26.9326C31.8755 26.9326 31.5894 27.2187 31.5894 27.5717C31.5894 27.9246 31.8754 28.2107 32.2284 28.2107C32.5813 28.2107 32.8675 27.9247 32.8675 27.5717C32.8675 27.2187 32.5813 26.9326 32.2284 26.9326Z" fill="#FFF5F5"/>
<path id="Vector_40" d="M29.3743 18.1998C29.3743 21.9643 26.3225 25.0159 22.5582 25.0159H17.872C17.1661 25.0159 16.594 24.4437 16.594 23.7379C16.594 19.2677 20.2179 15.6437 24.6882 15.6437H26.8183C28.2299 15.6437 29.3743 16.788 29.3743 18.1998Z" fill="#7C3F2C"/>
<path id="Vector_41" d="M38.0653 22.6007V25.0159H33.2363C30.1625 25.0159 27.6707 22.524 27.6707 19.4503V19.0813C27.6707 17.1827 29.2097 15.6437 31.1083 15.6437C34.9505 15.6437 38.0653 18.7585 38.0653 22.6007Z" fill="#954C35"/>
<path id="Vector_42" d="M17.5847 39.0759H16.3254C16.0288 39.0759 15.7883 38.8354 15.7883 38.5388V38.0017C15.7883 37.7051 16.0288 37.4646 16.3254 37.4646H17.5847C17.8813 37.4646 18.1219 37.7051 18.1219 38.0017V38.5388C18.1219 38.8355 17.8814 39.0759 17.5847 39.0759ZM33.9533 49.4947H32.694C32.3974 49.4947 32.1568 49.2542 32.1568 48.9576V48.4205C32.1568 48.1239 32.3974 47.8833 32.694 47.8833H33.9533C34.2499 47.8833 34.4904 48.1239 34.4904 48.4205V48.9576C34.4904 49.2543 34.2499 49.4947 33.9533 49.4947ZM49.6882 37.4646H48.4288C48.1322 37.4646 47.8917 37.2241 47.8917 36.9275V36.3904C47.8917 36.0938 48.1322 35.8533 48.4288 35.8533H49.6881C49.9847 35.8533 50.2252 36.0938 50.2252 36.3904V36.9275C50.2253 37.2242 49.9848 37.4646 49.6882 37.4646Z" fill="#FF9F22"/>
<path id="Vector_43" d="M18.6082 39.0759H17.3997C16.9547 39.0759 16.594 38.7152 16.594 38.2703C16.594 37.8253 16.9547 37.4646 17.3997 37.4646H18.6082C18.8306 37.4646 19.011 37.645 19.011 37.8674V38.6731C19.011 38.8956 18.8306 39.0759 18.6082 39.0759ZM34.9766 49.4947H33.7681C33.3231 49.4947 32.9624 49.1339 32.9624 48.689C32.9624 48.2441 33.3231 47.8833 33.7681 47.8833H34.9766C35.199 47.8833 35.3794 48.0637 35.3794 48.2862V49.0918C35.3794 49.3144 35.199 49.4947 34.9766 49.4947ZM50.7115 37.4646H49.503C49.0581 37.4646 48.6973 37.1039 48.6973 36.6589C48.6973 36.214 49.0581 35.8533 49.503 35.8533H50.7115C50.934 35.8533 51.1143 36.0336 51.1143 36.2561V37.0618C51.1143 37.2842 50.934 37.4646 50.7115 37.4646Z" fill="#FFC14F"/>
</g>
</g>
</svg>
